<?xml version="1.0"?><svg xmlns="http://www.w3.org/2000/svg" viewBox="0 0 60 80"><rect x="0" y="0" width="60" height="80" fill="rgb(230,230,230)"/><g><path d=" M 32.354 39.376 C 33.154 39.376 33.804 38.729 33.804 37.934 C 33.804 37.14 33.154 36.493 32.354 36.493 C 31.554 36.493 30.904 37.14 30.904 37.934 C 30.904 38.729 31.554 39.376 32.354 39.376 Z " fill="rgb(255,255,255)"/><path d=" M 42.705 32.732 C 42.602 32.575 42.439 32.465 42.255 32.428 L 27.348 29.418 C 26.97 29.341 26.6 29.582 26.517 29.958 L 26.032 32.141 C 25.948 32.523 26.188 32.901 26.57 32.986 C 26.952 33.071 27.329 32.83 27.414 32.448 L 27.748 30.943 L 41.277 33.675 L 39.179 43.781 C 39.099 44.164 39.345 44.538 39.728 44.618 C 39.776 44.628 39.824 44.633 39.872 44.633 C 40.201 44.633 40.495 44.403 40.565 44.069 L 42.808 33.266 C 42.846 33.081 42.809 32.889 42.705 32.732 Z " fill="rgb(255,255,255)"/><path d=" M 36.276 41.317 L 35.49 40.523 C 35.181 40.259 34.84 40.259 34.531 40.521 L 32.656 42.118 L 28.167 38.147 C 27.863 37.876 27.366 37.868 27.052 38.128 L 23.065 41.359 L 23.065 35.537 L 36.276 35.537 L 36.276 41.317 Z  M 36.276 45.209 L 23.065 45.209 L 23.065 43.503 L 27.552 39.851 L 32.111 43.829 C 32.419 44.102 32.859 44.107 33.172 43.841 L 34.957 42.236 L 36.276 43.491 L 36.276 45.209 Z  M 37.455 33.65 L 22.121 33.65 C 21.6 33.65 21.178 34.072 21.178 34.594 L 21.178 46.153 C 21.178 46.674 21.6 47.097 22.121 47.097 L 37.455 47.097 C 37.976 47.097 38.399 46.674 38.399 46.153 L 38.399 34.594 C 38.399 34.072 37.976 33.65 37.455 33.65 Z " fill="rgb(255,255,255)"/></g></svg>
